<svg version="1.2" xmlns="http://www.w3.org/2000/svg" viewBox="0 0 834 148" width="834" height="148">
	<title>Nytt projekt</title>
	<style>
		.s0 { fill: #8b4513 } 
	</style>
	<path id="ZEN OAS" class="s0" aria-label="ZEN OAS"  d="m58.8 106.2l57.5-69.5v-15.7h-88.4v19.8h56.4l-57.6 69.4v15.8h91.8v-19.8zm114.5 0.3v-24.3h48.7v-18.9h-48.7v-22.8h55.2v-19.5h-79.4v105h81.3v-19.5zm163.8-85.5v63.7l-52.2-63.7h-20.1v105h24v-63.8l52.3 63.8h20v-105zm172.2 106.8c33 0 57.5-23 57.5-54.3 0-31.4-24.5-54.3-57.5-54.3-33.2 0-57.4 23.1-57.4 54.3 0 31.2 24.2 54.3 57.4 54.3zm0-20.7c-18.7 0-32.9-13.7-32.9-33.6 0-20 14.2-33.6 32.9-33.6 18.8 0 32.9 13.6 32.9 33.6 0 19.9-14.1 33.6-32.9 33.6zm167.7 18.9h25.5l-46.9-105h-24l-46.9 105h24.9l9.4-22.5h48.7zm-50.3-40.9l16.7-40.3 16.7 40.3zm136.2 42.7c30 0 44.5-15 44.5-32.6 0-38.5-61-25.1-61-44.5 0-6.6 5.5-12 19.9-12 9.3 0 19.4 2.7 29.1 8.2l7.5-18.4c-9.7-6.2-23.2-9.3-36.4-9.3-29.9 0-44.3 14.8-44.3 32.7 0 39 61.1 25.5 61.1 45.1 0 6.5-5.9 11.3-20.3 11.3-12.6 0-25.8-4.5-34.6-11l-8.3 18.3c9.3 7.2 26.1 12.2 42.8 12.2z"/>
</svg>